<mxfile host="Electron" agent="Mozilla/5.0 (Windows NT 10.0; Win64; x64) AppleWebKit/537.36 (KHTML, like Gecko) draw.io/24.7.5 Chrome/126.0.6478.183 Electron/31.3.0 Safari/537.36" version="24.7.5">
  <diagram name="Página-1" id="9lpRC720YeNl3CHH3Sbh">
    <mxGraphModel dx="1600" dy="967" grid="1" gridSize="10" guides="1" tooltips="1" connect="1" arrows="1" fold="1" page="1" pageScale="1" pageWidth="850" pageHeight="1100" math="0" shadow="0">
      <root>
        <mxCell id="0" />
        <mxCell id="1" parent="0" />
        <mxCell id="GPbyq4iq2yMtp6xuoTA0-1" value="INICIO" style="strokeWidth=2;html=1;shape=mxgraph.flowchart.start_1;whiteSpace=wrap;fillColor=#1ba1e2;fontColor=#ffffff;strokeColor=#006EAF;" vertex="1" parent="1">
          <mxGeometry x="160" y="130" width="80" height="30" as="geometry" />
        </mxCell>
        <mxCell id="GPbyq4iq2yMtp6xuoTA0-9" style="edgeStyle=orthogonalEdgeStyle;rounded=0;orthogonalLoop=1;jettySize=auto;html=1;exitX=0.5;exitY=1;exitDx=0;exitDy=0;entryX=0.5;entryY=0;entryDx=0;entryDy=0;" edge="1" parent="1" source="GPbyq4iq2yMtp6xuoTA0-2" target="GPbyq4iq2yMtp6xuoTA0-3">
          <mxGeometry relative="1" as="geometry" />
        </mxCell>
        <mxCell id="GPbyq4iq2yMtp6xuoTA0-2" value="PULSADOR_1, PULSADOR_2, PULSADOR_3,&lt;div&gt;PULSADOR_4&lt;/div&gt;" style="html=1;strokeWidth=2;shape=manualInput;whiteSpace=wrap;rounded=1;size=26;arcSize=11;fillColor=#f0a30a;fontColor=#000000;strokeColor=#BD7000;" vertex="1" parent="1">
          <mxGeometry x="145" y="170" width="110" height="100" as="geometry" />
        </mxCell>
        <mxCell id="GPbyq4iq2yMtp6xuoTA0-10" style="edgeStyle=orthogonalEdgeStyle;rounded=0;orthogonalLoop=1;jettySize=auto;html=1;exitX=0.5;exitY=1;exitDx=0;exitDy=0;entryX=0.5;entryY=0;entryDx=0;entryDy=0;" edge="1" parent="1" source="GPbyq4iq2yMtp6xuoTA0-3" target="GPbyq4iq2yMtp6xuoTA0-4">
          <mxGeometry relative="1" as="geometry" />
        </mxCell>
        <mxCell id="GPbyq4iq2yMtp6xuoTA0-3" value="INICIALIZAR SERVO" style="rounded=1;whiteSpace=wrap;html=1;absoluteArcSize=1;arcSize=14;strokeWidth=2;fillColor=#fa6800;fontColor=#000000;strokeColor=#C73500;" vertex="1" parent="1">
          <mxGeometry x="155" y="290" width="90" height="50" as="geometry" />
        </mxCell>
        <mxCell id="GPbyq4iq2yMtp6xuoTA0-11" style="edgeStyle=orthogonalEdgeStyle;rounded=0;orthogonalLoop=1;jettySize=auto;html=1;exitX=0.5;exitY=1;exitDx=0;exitDy=0;entryX=0.5;entryY=0;entryDx=0;entryDy=0;" edge="1" parent="1" source="GPbyq4iq2yMtp6xuoTA0-4" target="GPbyq4iq2yMtp6xuoTA0-5">
          <mxGeometry relative="1" as="geometry" />
        </mxCell>
        <mxCell id="GPbyq4iq2yMtp6xuoTA0-4" value="ACTIVAR RESISTENCIAS PULL UP DEL PUERTO B" style="rounded=1;whiteSpace=wrap;html=1;absoluteArcSize=1;arcSize=14;strokeWidth=2;fillColor=#fa6800;fontColor=#000000;strokeColor=#C73500;" vertex="1" parent="1">
          <mxGeometry x="155" y="360" width="95" height="70" as="geometry" />
        </mxCell>
        <mxCell id="GPbyq4iq2yMtp6xuoTA0-5" value="HABILITAR INTERRUPCION RBI" style="rounded=1;whiteSpace=wrap;html=1;absoluteArcSize=1;arcSize=14;strokeWidth=2;fillColor=#fa6800;fontColor=#000000;strokeColor=#C73500;" vertex="1" parent="1">
          <mxGeometry x="146.25" y="450" width="107.5" height="50" as="geometry" />
        </mxCell>
        <mxCell id="GPbyq4iq2yMtp6xuoTA0-12" style="edgeStyle=orthogonalEdgeStyle;rounded=0;orthogonalLoop=1;jettySize=auto;html=1;exitX=0.5;exitY=1;exitDx=0;exitDy=0;exitPerimeter=0;" edge="1" parent="1" source="GPbyq4iq2yMtp6xuoTA0-6">
          <mxGeometry relative="1" as="geometry">
            <mxPoint x="200" y="510" as="targetPoint" />
            <Array as="points">
              <mxPoint x="200" y="640" />
              <mxPoint x="290" y="640" />
              <mxPoint x="290" y="510" />
            </Array>
          </mxGeometry>
        </mxCell>
        <mxCell id="GPbyq4iq2yMtp6xuoTA0-13" value="SI" style="edgeLabel;html=1;align=center;verticalAlign=middle;resizable=0;points=[];" vertex="1" connectable="0" parent="GPbyq4iq2yMtp6xuoTA0-12">
          <mxGeometry x="-0.8914" y="2" relative="1" as="geometry">
            <mxPoint as="offset" />
          </mxGeometry>
        </mxCell>
        <mxCell id="GPbyq4iq2yMtp6xuoTA0-6" value="TRUE" style="strokeWidth=2;html=1;shape=mxgraph.flowchart.decision;whiteSpace=wrap;fillColor=#76608a;fontColor=#ffffff;strokeColor=#432D57;" vertex="1" parent="1">
          <mxGeometry x="151.5" y="530" width="97" height="70" as="geometry" />
        </mxCell>
        <mxCell id="GPbyq4iq2yMtp6xuoTA0-7" style="edgeStyle=orthogonalEdgeStyle;rounded=0;orthogonalLoop=1;jettySize=auto;html=1;exitX=0.5;exitY=1;exitDx=0;exitDy=0;entryX=0.5;entryY=0;entryDx=0;entryDy=0;entryPerimeter=0;" edge="1" parent="1" source="GPbyq4iq2yMtp6xuoTA0-5" target="GPbyq4iq2yMtp6xuoTA0-6">
          <mxGeometry relative="1" as="geometry" />
        </mxCell>
        <mxCell id="GPbyq4iq2yMtp6xuoTA0-8" style="edgeStyle=orthogonalEdgeStyle;rounded=0;orthogonalLoop=1;jettySize=auto;html=1;exitX=0.5;exitY=1;exitDx=0;exitDy=0;exitPerimeter=0;entryX=0.491;entryY=0.12;entryDx=0;entryDy=0;entryPerimeter=0;" edge="1" parent="1" source="GPbyq4iq2yMtp6xuoTA0-1" target="GPbyq4iq2yMtp6xuoTA0-2">
          <mxGeometry relative="1" as="geometry" />
        </mxCell>
        <mxCell id="GPbyq4iq2yMtp6xuoTA0-14" value="FIN" style="strokeWidth=2;html=1;shape=mxgraph.flowchart.start_1;whiteSpace=wrap;fillColor=#1ba1e2;fontColor=#ffffff;strokeColor=#006EAF;" vertex="1" parent="1">
          <mxGeometry x="75" y="600" width="80" height="30" as="geometry" />
        </mxCell>
        <mxCell id="GPbyq4iq2yMtp6xuoTA0-15" style="edgeStyle=orthogonalEdgeStyle;rounded=0;orthogonalLoop=1;jettySize=auto;html=1;exitX=0;exitY=0.5;exitDx=0;exitDy=0;exitPerimeter=0;entryX=0.5;entryY=0;entryDx=0;entryDy=0;entryPerimeter=0;" edge="1" parent="1" source="GPbyq4iq2yMtp6xuoTA0-6" target="GPbyq4iq2yMtp6xuoTA0-14">
          <mxGeometry relative="1" as="geometry" />
        </mxCell>
        <mxCell id="GPbyq4iq2yMtp6xuoTA0-16" value="NO" style="edgeLabel;html=1;align=center;verticalAlign=middle;resizable=0;points=[];" vertex="1" connectable="0" parent="GPbyq4iq2yMtp6xuoTA0-15">
          <mxGeometry x="-0.4825" y="2" relative="1" as="geometry">
            <mxPoint x="1" as="offset" />
          </mxGeometry>
        </mxCell>
        <mxCell id="GPbyq4iq2yMtp6xuoTA0-17" value="INT_RBI" style="strokeWidth=2;html=1;shape=mxgraph.flowchart.start_1;whiteSpace=wrap;fillColor=#1ba1e2;fontColor=#ffffff;strokeColor=#006EAF;" vertex="1" parent="1">
          <mxGeometry x="370" y="130" width="80" height="30" as="geometry" />
        </mxCell>
        <mxCell id="GPbyq4iq2yMtp6xuoTA0-20" style="edgeStyle=orthogonalEdgeStyle;rounded=0;orthogonalLoop=1;jettySize=auto;html=1;exitX=0.5;exitY=1;exitDx=0;exitDy=0;exitPerimeter=0;entryX=0.5;entryY=0;entryDx=0;entryDy=0;" edge="1" parent="1" source="GPbyq4iq2yMtp6xuoTA0-18" target="GPbyq4iq2yMtp6xuoTA0-19">
          <mxGeometry relative="1" as="geometry" />
        </mxCell>
        <mxCell id="GPbyq4iq2yMtp6xuoTA0-21" value="SI" style="edgeLabel;html=1;align=center;verticalAlign=middle;resizable=0;points=[];" vertex="1" connectable="0" parent="GPbyq4iq2yMtp6xuoTA0-20">
          <mxGeometry x="-0.0667" y="-2" relative="1" as="geometry">
            <mxPoint as="offset" />
          </mxGeometry>
        </mxCell>
        <mxCell id="GPbyq4iq2yMtp6xuoTA0-24" style="edgeStyle=orthogonalEdgeStyle;rounded=0;orthogonalLoop=1;jettySize=auto;html=1;exitX=0;exitY=0.5;exitDx=0;exitDy=0;exitPerimeter=0;" edge="1" parent="1" source="GPbyq4iq2yMtp6xuoTA0-18">
          <mxGeometry relative="1" as="geometry">
            <mxPoint x="410" y="350" as="targetPoint" />
            <Array as="points">
              <mxPoint x="320" y="230" />
              <mxPoint x="320" y="350" />
            </Array>
          </mxGeometry>
        </mxCell>
        <mxCell id="GPbyq4iq2yMtp6xuoTA0-25" value="NO" style="edgeLabel;html=1;align=center;verticalAlign=middle;resizable=0;points=[];" vertex="1" connectable="0" parent="GPbyq4iq2yMtp6xuoTA0-24">
          <mxGeometry x="-0.875" y="3" relative="1" as="geometry">
            <mxPoint as="offset" />
          </mxGeometry>
        </mxCell>
        <mxCell id="GPbyq4iq2yMtp6xuoTA0-18" value="PULSADOR_1 = ON" style="strokeWidth=2;html=1;shape=mxgraph.flowchart.decision;whiteSpace=wrap;fillColor=#76608a;fontColor=#ffffff;strokeColor=#432D57;" vertex="1" parent="1">
          <mxGeometry x="350" y="190" width="120" height="80" as="geometry" />
        </mxCell>
        <mxCell id="GPbyq4iq2yMtp6xuoTA0-19" value="SERVO_1 = 180°" style="rounded=1;whiteSpace=wrap;html=1;absoluteArcSize=1;arcSize=14;strokeWidth=2;fillColor=#fa6800;fontColor=#000000;strokeColor=#C73500;" vertex="1" parent="1">
          <mxGeometry x="355" y="300" width="110" height="30" as="geometry" />
        </mxCell>
        <mxCell id="GPbyq4iq2yMtp6xuoTA0-27" style="edgeStyle=orthogonalEdgeStyle;rounded=0;orthogonalLoop=1;jettySize=auto;html=1;exitX=0.5;exitY=1;exitDx=0;exitDy=0;exitPerimeter=0;entryX=0.5;entryY=0;entryDx=0;entryDy=0;" edge="1" parent="1" source="GPbyq4iq2yMtp6xuoTA0-22" target="GPbyq4iq2yMtp6xuoTA0-26">
          <mxGeometry relative="1" as="geometry" />
        </mxCell>
        <mxCell id="GPbyq4iq2yMtp6xuoTA0-28" value="SI" style="edgeLabel;html=1;align=center;verticalAlign=middle;resizable=0;points=[];" vertex="1" connectable="0" parent="GPbyq4iq2yMtp6xuoTA0-27">
          <mxGeometry x="-0.1333" y="1" relative="1" as="geometry">
            <mxPoint as="offset" />
          </mxGeometry>
        </mxCell>
        <mxCell id="GPbyq4iq2yMtp6xuoTA0-31" style="edgeStyle=orthogonalEdgeStyle;rounded=0;orthogonalLoop=1;jettySize=auto;html=1;exitX=0;exitY=0.5;exitDx=0;exitDy=0;exitPerimeter=0;" edge="1" parent="1" source="GPbyq4iq2yMtp6xuoTA0-22">
          <mxGeometry relative="1" as="geometry">
            <mxPoint x="410" y="530" as="targetPoint" />
            <Array as="points">
              <mxPoint x="320" y="410" />
              <mxPoint x="320" y="530" />
            </Array>
          </mxGeometry>
        </mxCell>
        <mxCell id="GPbyq4iq2yMtp6xuoTA0-32" value="NO" style="edgeLabel;html=1;align=center;verticalAlign=middle;resizable=0;points=[];" vertex="1" connectable="0" parent="GPbyq4iq2yMtp6xuoTA0-31">
          <mxGeometry x="-0.875" y="2" relative="1" as="geometry">
            <mxPoint as="offset" />
          </mxGeometry>
        </mxCell>
        <mxCell id="GPbyq4iq2yMtp6xuoTA0-22" value="PULSADOR_2 = ON" style="strokeWidth=2;html=1;shape=mxgraph.flowchart.decision;whiteSpace=wrap;fillColor=#76608a;fontColor=#ffffff;strokeColor=#432D57;" vertex="1" parent="1">
          <mxGeometry x="350" y="370" width="120" height="80" as="geometry" />
        </mxCell>
        <mxCell id="GPbyq4iq2yMtp6xuoTA0-23" style="edgeStyle=orthogonalEdgeStyle;rounded=0;orthogonalLoop=1;jettySize=auto;html=1;exitX=0.5;exitY=1;exitDx=0;exitDy=0;entryX=0.5;entryY=0;entryDx=0;entryDy=0;entryPerimeter=0;" edge="1" parent="1" source="GPbyq4iq2yMtp6xuoTA0-19" target="GPbyq4iq2yMtp6xuoTA0-22">
          <mxGeometry relative="1" as="geometry" />
        </mxCell>
        <mxCell id="GPbyq4iq2yMtp6xuoTA0-26" value="SERVO_2 = 90°" style="rounded=1;whiteSpace=wrap;html=1;absoluteArcSize=1;arcSize=14;strokeWidth=2;fillColor=#fa6800;fontColor=#000000;strokeColor=#C73500;" vertex="1" parent="1">
          <mxGeometry x="355" y="480" width="110" height="30" as="geometry" />
        </mxCell>
        <mxCell id="GPbyq4iq2yMtp6xuoTA0-34" style="edgeStyle=orthogonalEdgeStyle;rounded=0;orthogonalLoop=1;jettySize=auto;html=1;exitX=0.5;exitY=1;exitDx=0;exitDy=0;exitPerimeter=0;entryX=0.5;entryY=0;entryDx=0;entryDy=0;" edge="1" parent="1" source="GPbyq4iq2yMtp6xuoTA0-29" target="GPbyq4iq2yMtp6xuoTA0-33">
          <mxGeometry relative="1" as="geometry" />
        </mxCell>
        <mxCell id="GPbyq4iq2yMtp6xuoTA0-35" value="SI" style="edgeLabel;html=1;align=center;verticalAlign=middle;resizable=0;points=[];" vertex="1" connectable="0" parent="GPbyq4iq2yMtp6xuoTA0-34">
          <mxGeometry x="-0.3333" relative="1" as="geometry">
            <mxPoint as="offset" />
          </mxGeometry>
        </mxCell>
        <mxCell id="GPbyq4iq2yMtp6xuoTA0-39" style="edgeStyle=orthogonalEdgeStyle;rounded=0;orthogonalLoop=1;jettySize=auto;html=1;exitX=0;exitY=0.5;exitDx=0;exitDy=0;exitPerimeter=0;" edge="1" parent="1" source="GPbyq4iq2yMtp6xuoTA0-29">
          <mxGeometry relative="1" as="geometry">
            <mxPoint x="410" y="700" as="targetPoint" />
            <Array as="points">
              <mxPoint x="320" y="590" />
              <mxPoint x="320" y="700" />
            </Array>
          </mxGeometry>
        </mxCell>
        <mxCell id="GPbyq4iq2yMtp6xuoTA0-40" value="NO" style="edgeLabel;html=1;align=center;verticalAlign=middle;resizable=0;points=[];" vertex="1" connectable="0" parent="GPbyq4iq2yMtp6xuoTA0-39">
          <mxGeometry x="-0.887" y="1" relative="1" as="geometry">
            <mxPoint as="offset" />
          </mxGeometry>
        </mxCell>
        <mxCell id="GPbyq4iq2yMtp6xuoTA0-29" value="PULSADOR_3 = ON" style="strokeWidth=2;html=1;shape=mxgraph.flowchart.decision;whiteSpace=wrap;fillColor=#76608a;fontColor=#ffffff;strokeColor=#432D57;" vertex="1" parent="1">
          <mxGeometry x="350" y="550" width="120" height="80" as="geometry" />
        </mxCell>
        <mxCell id="GPbyq4iq2yMtp6xuoTA0-30" style="edgeStyle=orthogonalEdgeStyle;rounded=0;orthogonalLoop=1;jettySize=auto;html=1;exitX=0.5;exitY=1;exitDx=0;exitDy=0;entryX=0.5;entryY=0;entryDx=0;entryDy=0;entryPerimeter=0;" edge="1" parent="1" source="GPbyq4iq2yMtp6xuoTA0-26" target="GPbyq4iq2yMtp6xuoTA0-29">
          <mxGeometry relative="1" as="geometry" />
        </mxCell>
        <mxCell id="GPbyq4iq2yMtp6xuoTA0-33" value="SERVO_3 = 180°" style="rounded=1;whiteSpace=wrap;html=1;absoluteArcSize=1;arcSize=14;strokeWidth=2;fillColor=#fa6800;fontColor=#000000;strokeColor=#C73500;" vertex="1" parent="1">
          <mxGeometry x="355" y="660" width="110" height="30" as="geometry" />
        </mxCell>
        <mxCell id="GPbyq4iq2yMtp6xuoTA0-45" value="" style="edgeStyle=orthogonalEdgeStyle;rounded=0;orthogonalLoop=1;jettySize=auto;html=1;" edge="1" parent="1" source="GPbyq4iq2yMtp6xuoTA0-36" target="GPbyq4iq2yMtp6xuoTA0-44">
          <mxGeometry relative="1" as="geometry" />
        </mxCell>
        <mxCell id="GPbyq4iq2yMtp6xuoTA0-46" value="SI" style="edgeLabel;html=1;align=center;verticalAlign=middle;resizable=0;points=[];" vertex="1" connectable="0" parent="GPbyq4iq2yMtp6xuoTA0-45">
          <mxGeometry x="0.4" y="1" relative="1" as="geometry">
            <mxPoint as="offset" />
          </mxGeometry>
        </mxCell>
        <mxCell id="GPbyq4iq2yMtp6xuoTA0-49" style="edgeStyle=orthogonalEdgeStyle;rounded=0;orthogonalLoop=1;jettySize=auto;html=1;exitX=0;exitY=0.5;exitDx=0;exitDy=0;exitPerimeter=0;" edge="1" parent="1" source="GPbyq4iq2yMtp6xuoTA0-36">
          <mxGeometry relative="1" as="geometry">
            <mxPoint x="410" y="910" as="targetPoint" />
            <Array as="points">
              <mxPoint x="320" y="760" />
              <mxPoint x="320" y="910" />
            </Array>
          </mxGeometry>
        </mxCell>
        <mxCell id="GPbyq4iq2yMtp6xuoTA0-50" value="NO" style="edgeLabel;html=1;align=center;verticalAlign=middle;resizable=0;points=[];" vertex="1" connectable="0" parent="GPbyq4iq2yMtp6xuoTA0-49">
          <mxGeometry x="-0.9111" y="4" relative="1" as="geometry">
            <mxPoint as="offset" />
          </mxGeometry>
        </mxCell>
        <mxCell id="GPbyq4iq2yMtp6xuoTA0-36" value="PULSADOR_3 = ON" style="strokeWidth=2;html=1;shape=mxgraph.flowchart.decision;whiteSpace=wrap;fillColor=#76608a;fontColor=#ffffff;strokeColor=#432D57;" vertex="1" parent="1">
          <mxGeometry x="350" y="720" width="120" height="80" as="geometry" />
        </mxCell>
        <mxCell id="GPbyq4iq2yMtp6xuoTA0-37" style="edgeStyle=orthogonalEdgeStyle;rounded=0;orthogonalLoop=1;jettySize=auto;html=1;exitX=0.5;exitY=1;exitDx=0;exitDy=0;entryX=0.5;entryY=0;entryDx=0;entryDy=0;entryPerimeter=0;" edge="1" parent="1" source="GPbyq4iq2yMtp6xuoTA0-33" target="GPbyq4iq2yMtp6xuoTA0-36">
          <mxGeometry relative="1" as="geometry" />
        </mxCell>
        <mxCell id="GPbyq4iq2yMtp6xuoTA0-44" value="LIMPIAR" style="shape=process;whiteSpace=wrap;html=1;backgroundOutline=1;strokeWidth=2;fillColor=#e3c800;fontColor=#000000;strokeColor=#B09500;" vertex="1" parent="1">
          <mxGeometry x="350" y="830" width="120" height="60" as="geometry" />
        </mxCell>
        <mxCell id="GPbyq4iq2yMtp6xuoTA0-47" value="SALIR DE INT" style="strokeWidth=2;html=1;shape=mxgraph.flowchart.start_1;whiteSpace=wrap;fillColor=#1ba1e2;fontColor=#ffffff;strokeColor=#006EAF;" vertex="1" parent="1">
          <mxGeometry x="370" y="930" width="80" height="30" as="geometry" />
        </mxCell>
        <mxCell id="GPbyq4iq2yMtp6xuoTA0-48" style="edgeStyle=orthogonalEdgeStyle;rounded=0;orthogonalLoop=1;jettySize=auto;html=1;exitX=0.5;exitY=1;exitDx=0;exitDy=0;entryX=0.5;entryY=0;entryDx=0;entryDy=0;entryPerimeter=0;" edge="1" parent="1" source="GPbyq4iq2yMtp6xuoTA0-44" target="GPbyq4iq2yMtp6xuoTA0-47">
          <mxGeometry relative="1" as="geometry" />
        </mxCell>
        <mxCell id="GPbyq4iq2yMtp6xuoTA0-51" style="edgeStyle=orthogonalEdgeStyle;rounded=0;orthogonalLoop=1;jettySize=auto;html=1;exitX=0.5;exitY=1;exitDx=0;exitDy=0;exitPerimeter=0;entryX=0.5;entryY=0;entryDx=0;entryDy=0;entryPerimeter=0;" edge="1" parent="1" source="GPbyq4iq2yMtp6xuoTA0-17" target="GPbyq4iq2yMtp6xuoTA0-18">
          <mxGeometry relative="1" as="geometry" />
        </mxCell>
        <mxCell id="GPbyq4iq2yMtp6xuoTA0-56" style="edgeStyle=orthogonalEdgeStyle;rounded=0;orthogonalLoop=1;jettySize=auto;html=1;exitX=0.5;exitY=1;exitDx=0;exitDy=0;exitPerimeter=0;entryX=0.5;entryY=0;entryDx=0;entryDy=0;" edge="1" parent="1" source="GPbyq4iq2yMtp6xuoTA0-52" target="GPbyq4iq2yMtp6xuoTA0-53">
          <mxGeometry relative="1" as="geometry" />
        </mxCell>
        <mxCell id="GPbyq4iq2yMtp6xuoTA0-52" value="LIMPIAR" style="strokeWidth=2;html=1;shape=mxgraph.flowchart.start_1;whiteSpace=wrap;fillColor=#1ba1e2;fontColor=#ffffff;strokeColor=#006EAF;" vertex="1" parent="1">
          <mxGeometry x="550" y="130" width="80" height="30" as="geometry" />
        </mxCell>
        <mxCell id="GPbyq4iq2yMtp6xuoTA0-57" style="edgeStyle=orthogonalEdgeStyle;rounded=0;orthogonalLoop=1;jettySize=auto;html=1;exitX=0.5;exitY=1;exitDx=0;exitDy=0;entryX=0.5;entryY=0;entryDx=0;entryDy=0;" edge="1" parent="1" source="GPbyq4iq2yMtp6xuoTA0-53" target="GPbyq4iq2yMtp6xuoTA0-54">
          <mxGeometry relative="1" as="geometry" />
        </mxCell>
        <mxCell id="GPbyq4iq2yMtp6xuoTA0-53" value="SERVO_1 = 0°" style="rounded=1;whiteSpace=wrap;html=1;absoluteArcSize=1;arcSize=14;strokeWidth=2;fillColor=#fa6800;fontColor=#000000;strokeColor=#C73500;" vertex="1" parent="1">
          <mxGeometry x="535" y="190" width="110" height="30" as="geometry" />
        </mxCell>
        <mxCell id="GPbyq4iq2yMtp6xuoTA0-58" style="edgeStyle=orthogonalEdgeStyle;rounded=0;orthogonalLoop=1;jettySize=auto;html=1;exitX=0.5;exitY=1;exitDx=0;exitDy=0;entryX=0.5;entryY=0;entryDx=0;entryDy=0;" edge="1" parent="1" source="GPbyq4iq2yMtp6xuoTA0-54" target="GPbyq4iq2yMtp6xuoTA0-55">
          <mxGeometry relative="1" as="geometry" />
        </mxCell>
        <mxCell id="GPbyq4iq2yMtp6xuoTA0-54" value="SERVO_2 = 0°" style="rounded=1;whiteSpace=wrap;html=1;absoluteArcSize=1;arcSize=14;strokeWidth=2;fillColor=#fa6800;fontColor=#000000;strokeColor=#C73500;" vertex="1" parent="1">
          <mxGeometry x="535" y="240" width="110" height="30" as="geometry" />
        </mxCell>
        <mxCell id="GPbyq4iq2yMtp6xuoTA0-55" value="SERVO_3 = 0°" style="rounded=1;whiteSpace=wrap;html=1;absoluteArcSize=1;arcSize=14;strokeWidth=2;fillColor=#fa6800;fontColor=#000000;strokeColor=#C73500;" vertex="1" parent="1">
          <mxGeometry x="535" y="290" width="110" height="30" as="geometry" />
        </mxCell>
        <mxCell id="GPbyq4iq2yMtp6xuoTA0-59" value="VOLVER" style="strokeWidth=2;html=1;shape=mxgraph.flowchart.start_1;whiteSpace=wrap;fillColor=#1ba1e2;fontColor=#ffffff;strokeColor=#006EAF;" vertex="1" parent="1">
          <mxGeometry x="550" y="340" width="80" height="30" as="geometry" />
        </mxCell>
        <mxCell id="GPbyq4iq2yMtp6xuoTA0-60" style="edgeStyle=orthogonalEdgeStyle;rounded=0;orthogonalLoop=1;jettySize=auto;html=1;exitX=0.5;exitY=1;exitDx=0;exitDy=0;entryX=0.5;entryY=0;entryDx=0;entryDy=0;entryPerimeter=0;" edge="1" parent="1" source="GPbyq4iq2yMtp6xuoTA0-55" target="GPbyq4iq2yMtp6xuoTA0-59">
          <mxGeometry relative="1" as="geometry" />
        </mxCell>
      </root>
    </mxGraphModel>
  </diagram>
</mxfile>
